<mxfile host="app.diagrams.net" modified="2024-02-19T22:25:27.231Z" agent="Mozilla/5.0 (Windows NT 10.0; Win64; x64) AppleWebKit/537.36 (KHTML, like Gecko) Chrome/121.0.0.0 Safari/537.36" etag="AtuMA3EKAA2ukQoY9F6l" version="23.1.5" type="device">
  <diagram name="Seite-1" id="DJAtRy58HFnC1IyGBvIF">
    <mxGraphModel dx="4241" dy="1843" grid="1" gridSize="10" guides="1" tooltips="1" connect="1" arrows="1" fold="1" page="1" pageScale="1" pageWidth="827" pageHeight="1169" math="0" shadow="0">
      <root>
        <mxCell id="0" />
        <mxCell id="1" parent="0" />
        <mxCell id="2v_n0HTbieaGvONQU3wn-126" value="" style="whiteSpace=wrap;html=1;" parent="1" vertex="1">
          <mxGeometry x="-480" y="560" width="1300" height="1770" as="geometry" />
        </mxCell>
        <mxCell id="2v_n0HTbieaGvONQU3wn-127" value="Model" style="text;html=1;align=center;verticalAlign=middle;whiteSpace=wrap;rounded=0;fontSize=18;fontStyle=1" parent="1" vertex="1">
          <mxGeometry x="115" y="600" width="60" height="30" as="geometry" />
        </mxCell>
        <mxCell id="2v_n0HTbieaGvONQU3wn-128" value="GameOverState" style="swimlane;fontStyle=2;align=center;verticalAlign=top;childLayout=stackLayout;horizontal=1;startSize=26;horizontalStack=0;resizeParent=1;resizeLast=0;collapsible=1;marginBottom=0;rounded=0;shadow=0;strokeWidth=1;" parent="1" vertex="1">
          <mxGeometry x="-380" y="1060" width="380" height="140" as="geometry">
            <mxRectangle x="230" y="140" width="160" height="26" as="alternateBounds" />
          </mxGeometry>
        </mxCell>
        <mxCell id="2v_n0HTbieaGvONQU3wn-137" value="+ AfterEnterState(game: BattleshipGame): void" style="text;align=left;verticalAlign=top;spacingLeft=4;spacingRight=4;overflow=hidden;rotatable=0;points=[[0,0.5],[1,0.5]];portConstraint=eastwest;" parent="2v_n0HTbieaGvONQU3wn-128" vertex="1">
          <mxGeometry y="26" width="380" height="26" as="geometry" />
        </mxCell>
        <mxCell id="2v_n0HTbieaGvONQU3wn-138" value="+ EnterState(game: BattleshipGame): void" style="text;align=left;verticalAlign=top;spacingLeft=4;spacingRight=4;overflow=hidden;rotatable=0;points=[[0,0.5],[1,0.5]];portConstraint=eastwest;" parent="2v_n0HTbieaGvONQU3wn-128" vertex="1">
          <mxGeometry y="52" width="380" height="26" as="geometry" />
        </mxCell>
        <mxCell id="2v_n0HTbieaGvONQU3wn-139" value="+ ExitState(game: BattleshipGame): void" style="text;align=left;verticalAlign=top;spacingLeft=4;spacingRight=4;overflow=hidden;rotatable=0;points=[[0,0.5],[1,0.5]];portConstraint=eastwest;" parent="2v_n0HTbieaGvONQU3wn-128" vertex="1">
          <mxGeometry y="78" width="380" height="26" as="geometry" />
        </mxCell>
        <mxCell id="2v_n0HTbieaGvONQU3wn-140" value="+ HandleInput(game: BattleshipGame, coordinate: Coordinate): void" style="text;align=left;verticalAlign=top;spacingLeft=4;spacingRight=4;overflow=hidden;rotatable=0;points=[[0,0.5],[1,0.5]];portConstraint=eastwest;" parent="2v_n0HTbieaGvONQU3wn-128" vertex="1">
          <mxGeometry y="104" width="380" height="26" as="geometry" />
        </mxCell>
        <mxCell id="2v_n0HTbieaGvONQU3wn-141" value="Battleship" style="swimlane;fontStyle=2;align=center;verticalAlign=top;childLayout=stackLayout;horizontal=1;startSize=26;horizontalStack=0;resizeParent=1;resizeLast=0;collapsible=1;marginBottom=0;rounded=0;shadow=0;strokeWidth=1;" parent="1" vertex="1">
          <mxGeometry x="110" y="980" width="260" height="100" as="geometry">
            <mxRectangle x="230" y="140" width="160" height="26" as="alternateBounds" />
          </mxGeometry>
        </mxCell>
        <mxCell id="2v_n0HTbieaGvONQU3wn-142" value="+ ShipLength: int" style="text;align=left;verticalAlign=top;spacingLeft=4;spacingRight=4;overflow=hidden;rotatable=0;points=[[0,0.5],[1,0.5]];portConstraint=eastwest;" parent="2v_n0HTbieaGvONQU3wn-141" vertex="1">
          <mxGeometry y="26" width="260" height="22" as="geometry" />
        </mxCell>
        <mxCell id="2v_n0HTbieaGvONQU3wn-143" value="+ shipType: string" style="text;align=left;verticalAlign=top;spacingLeft=4;spacingRight=4;overflow=hidden;rotatable=0;points=[[0,0.5],[1,0.5]];portConstraint=eastwest;" parent="2v_n0HTbieaGvONQU3wn-141" vertex="1">
          <mxGeometry y="48" width="260" height="26" as="geometry" />
        </mxCell>
        <mxCell id="2v_n0HTbieaGvONQU3wn-144" value="+ ShipColor: Color" style="text;align=left;verticalAlign=top;spacingLeft=4;spacingRight=4;overflow=hidden;rotatable=0;points=[[0,0.5],[1,0.5]];portConstraint=eastwest;" parent="2v_n0HTbieaGvONQU3wn-141" vertex="1">
          <mxGeometry y="74" width="260" height="26" as="geometry" />
        </mxCell>
        <mxCell id="A3eWRK3vAUM6zeVs9f-A-1" value="" style="whiteSpace=wrap;html=1;aspect=fixed;" parent="1" vertex="1">
          <mxGeometry x="-2240" y="640" width="1100" height="1100" as="geometry" />
        </mxCell>
        <mxCell id="A3eWRK3vAUM6zeVs9f-A-2" value="View" style="text;html=1;align=center;verticalAlign=middle;whiteSpace=wrap;rounded=0;fontStyle=1;fontSize=18;" parent="1" vertex="1">
          <mxGeometry x="-1720" y="655" width="60" height="30" as="geometry" />
        </mxCell>
        <mxCell id="A3eWRK3vAUM6zeVs9f-A-3" value="GameBoardView" style="swimlane;fontStyle=2;align=center;verticalAlign=top;childLayout=stackLayout;horizontal=1;startSize=26;horizontalStack=0;resizeParent=1;resizeLast=0;collapsible=1;marginBottom=0;rounded=0;shadow=0;strokeWidth=1;" parent="1" vertex="1">
          <mxGeometry x="-2200" y="730" width="570" height="970" as="geometry">
            <mxRectangle x="230" y="140" width="160" height="26" as="alternateBounds" />
          </mxGeometry>
        </mxCell>
        <mxCell id="A3eWRK3vAUM6zeVs9f-A-4" value="- controller: BattleshipGameController" style="text;align=left;verticalAlign=top;spacingLeft=4;spacingRight=4;overflow=hidden;rotatable=0;points=[[0,0.5],[1,0.5]];portConstraint=eastwest;" parent="A3eWRK3vAUM6zeVs9f-A-3" vertex="1">
          <mxGeometry y="26" width="570" height="26" as="geometry" />
        </mxCell>
        <mxCell id="A3eWRK3vAUM6zeVs9f-A-5" value="- fieldSize: int" style="text;align=left;verticalAlign=top;spacingLeft=4;spacingRight=4;overflow=hidden;rotatable=0;points=[[0,0.5],[1,0.5]];portConstraint=eastwest;" parent="A3eWRK3vAUM6zeVs9f-A-3" vertex="1">
          <mxGeometry y="52" width="570" height="26" as="geometry" />
        </mxCell>
        <mxCell id="A3eWRK3vAUM6zeVs9f-A-6" value="- form: Form" style="text;align=left;verticalAlign=top;spacingLeft=4;spacingRight=4;overflow=hidden;rotatable=0;points=[[0,0.5],[1,0.5]];portConstraint=eastwest;" parent="A3eWRK3vAUM6zeVs9f-A-3" vertex="1">
          <mxGeometry y="78" width="570" height="26" as="geometry" />
        </mxCell>
        <mxCell id="A3eWRK3vAUM6zeVs9f-A-7" value="- cellWidth: int" style="text;align=left;verticalAlign=top;spacingLeft=4;spacingRight=4;overflow=hidden;rotatable=0;points=[[0,0.5],[1,0.5]];portConstraint=eastwest;rounded=0;shadow=0;html=0;" parent="A3eWRK3vAUM6zeVs9f-A-3" vertex="1">
          <mxGeometry y="104" width="570" height="26" as="geometry" />
        </mxCell>
        <mxCell id="A3eWRK3vAUM6zeVs9f-A-8" value="- actualShip: Ship" style="text;align=left;verticalAlign=top;spacingLeft=4;spacingRight=4;overflow=hidden;rotatable=0;points=[[0,0.5],[1,0.5]];portConstraint=eastwest;rounded=0;shadow=0;html=0;" parent="A3eWRK3vAUM6zeVs9f-A-3" vertex="1">
          <mxGeometry y="130" width="570" height="26" as="geometry" />
        </mxCell>
        <mxCell id="A3eWRK3vAUM6zeVs9f-A-57" value="- actualSelectedSeaSquaresList: List&lt;SeaSquare&gt; = new List&lt;SeaSquare&gt;()" style="text;align=left;verticalAlign=top;spacingLeft=4;spacingRight=4;overflow=hidden;rotatable=0;points=[[0,0.5],[1,0.5]];portConstraint=eastwest;rounded=0;shadow=0;html=0;" parent="A3eWRK3vAUM6zeVs9f-A-3" vertex="1">
          <mxGeometry y="156" width="570" height="26" as="geometry" />
        </mxCell>
        <mxCell id="A3eWRK3vAUM6zeVs9f-A-58" value="- oldSelectedSeaSquaresStates: List&lt;SeaSquareState&gt; = new List&lt;SeaSquareState&gt;()" style="text;align=left;verticalAlign=top;spacingLeft=4;spacingRight=4;overflow=hidden;rotatable=0;points=[[0,0.5],[1,0.5]];portConstraint=eastwest;rounded=0;shadow=0;html=0;" parent="A3eWRK3vAUM6zeVs9f-A-3" vertex="1">
          <mxGeometry y="182" width="570" height="26" as="geometry" />
        </mxCell>
        <mxCell id="A3eWRK3vAUM6zeVs9f-A-59" value="- isActualOrientationHorizontally: bool " style="text;align=left;verticalAlign=top;spacingLeft=4;spacingRight=4;overflow=hidden;rotatable=0;points=[[0,0.5],[1,0.5]];portConstraint=eastwest;rounded=0;shadow=0;html=0;" parent="A3eWRK3vAUM6zeVs9f-A-3" vertex="1">
          <mxGeometry y="208" width="570" height="26" as="geometry" />
        </mxCell>
        <mxCell id="A3eWRK3vAUM6zeVs9f-A-60" value="- internalBoard: SeaSquare[,]" style="text;align=left;verticalAlign=top;spacingLeft=4;spacingRight=4;overflow=hidden;rotatable=0;points=[[0,0.5],[1,0.5]];portConstraint=eastwest;rounded=0;shadow=0;html=0;" parent="A3eWRK3vAUM6zeVs9f-A-3" vertex="1">
          <mxGeometry y="234" width="570" height="26" as="geometry" />
        </mxCell>
        <mxCell id="A3eWRK3vAUM6zeVs9f-A-9" value="" style="line;html=1;strokeWidth=1;align=left;verticalAlign=middle;spacingTop=-1;spacingLeft=3;spacingRight=3;rotatable=0;labelPosition=right;points=[];portConstraint=eastwest;" parent="A3eWRK3vAUM6zeVs9f-A-3" vertex="1">
          <mxGeometry y="260" width="570" height="8" as="geometry" />
        </mxCell>
        <mxCell id="A3eWRK3vAUM6zeVs9f-A-10" value="+ GameBoardView(gameBoard: GameBoard, xPos: int, yPos: int, boardLength: int, form: Form)" style="text;align=left;verticalAlign=top;spacingLeft=4;spacingRight=4;overflow=hidden;rotatable=0;points=[[0,0.5],[1,0.5]];portConstraint=eastwest;" parent="A3eWRK3vAUM6zeVs9f-A-3" vertex="1">
          <mxGeometry y="268" width="570" height="26" as="geometry" />
        </mxCell>
        <mxCell id="A3eWRK3vAUM6zeVs9f-A-11" value="- StartThreadedBacktracking(): void " style="text;align=left;verticalAlign=top;spacingLeft=4;spacingRight=4;overflow=hidden;rotatable=0;points=[[0,0.5],[1,0.5]];portConstraint=eastwest;" parent="A3eWRK3vAUM6zeVs9f-A-3" vertex="1">
          <mxGeometry y="294" width="570" height="26" as="geometry" />
        </mxCell>
        <mxCell id="A3eWRK3vAUM6zeVs9f-A-12" value="+ StartBacktracking(sender: object, System.EventArgs ): void" style="text;align=left;verticalAlign=top;spacingLeft=4;spacingRight=4;overflow=hidden;rotatable=0;points=[[0,0.5],[1,0.5]];portConstraint=eastwest;" parent="A3eWRK3vAUM6zeVs9f-A-3" vertex="1">
          <mxGeometry y="320" width="570" height="26" as="geometry" />
        </mxCell>
        <mxCell id="A3eWRK3vAUM6zeVs9f-A-13" value="- StartBacktracking(): void" style="text;align=left;verticalAlign=top;spacingLeft=4;spacingRight=4;overflow=hidden;rotatable=0;points=[[0,0.5],[1,0.5]];portConstraint=eastwest;" parent="A3eWRK3vAUM6zeVs9f-A-3" vertex="1">
          <mxGeometry y="346" width="570" height="26" as="geometry" />
        </mxCell>
        <mxCell id="A3eWRK3vAUM6zeVs9f-A-14" value="- AddShipsTo(ship: Ship, list: List&lt;Ship&gt;, count: int): void" style="text;align=left;verticalAlign=top;spacingLeft=4;spacingRight=4;overflow=hidden;rotatable=0;points=[[0,0.5],[1,0.5]];portConstraint=eastwest;" parent="A3eWRK3vAUM6zeVs9f-A-3" vertex="1">
          <mxGeometry y="372" width="570" height="26" as="geometry" />
        </mxCell>
        <mxCell id="A3eWRK3vAUM6zeVs9f-A-15" value="- GetNextFreeRandomField(): SeaSquare" style="text;align=left;verticalAlign=top;spacingLeft=4;spacingRight=4;overflow=hidden;rotatable=0;points=[[0,0.5],[1,0.5]];portConstraint=eastwest;" parent="A3eWRK3vAUM6zeVs9f-A-3" vertex="1">
          <mxGeometry y="398" width="570" height="26" as="geometry" />
        </mxCell>
        <mxCell id="A3eWRK3vAUM6zeVs9f-A-61" value="- GetRandomShip(list: List&lt;Ship&gt;): Ship" style="text;align=left;verticalAlign=top;spacingLeft=4;spacingRight=4;overflow=hidden;rotatable=0;points=[[0,0.5],[1,0.5]];portConstraint=eastwest;" parent="A3eWRK3vAUM6zeVs9f-A-3" vertex="1">
          <mxGeometry y="424" width="570" height="26" as="geometry" />
        </mxCell>
        <mxCell id="A3eWRK3vAUM6zeVs9f-A-62" value="- BackTracking(ships: List&lt;Ship&gt;): bool" style="text;align=left;verticalAlign=top;spacingLeft=4;spacingRight=4;overflow=hidden;rotatable=0;points=[[0,0.5],[1,0.5]];portConstraint=eastwest;" parent="A3eWRK3vAUM6zeVs9f-A-3" vertex="1">
          <mxGeometry y="450" width="570" height="26" as="geometry" />
        </mxCell>
        <mxCell id="A3eWRK3vAUM6zeVs9f-A-63" value="+ PressedKeyCheck(sender: object, e: KeyPressEventArgs): void" style="text;align=left;verticalAlign=top;spacingLeft=4;spacingRight=4;overflow=hidden;rotatable=0;points=[[0,0.5],[1,0.5]];portConstraint=eastwest;" parent="A3eWRK3vAUM6zeVs9f-A-3" vertex="1">
          <mxGeometry y="476" width="570" height="26" as="geometry" />
        </mxCell>
        <mxCell id="A3eWRK3vAUM6zeVs9f-A-64" value="- OnTimerEvent(sender: object, e: System.EventArgs): void" style="text;align=left;verticalAlign=top;spacingLeft=4;spacingRight=4;overflow=hidden;rotatable=0;points=[[0,0.5],[1,0.5]];portConstraint=eastwest;" parent="A3eWRK3vAUM6zeVs9f-A-3" vertex="1">
          <mxGeometry y="502" width="570" height="26" as="geometry" />
        </mxCell>
        <mxCell id="A3eWRK3vAUM6zeVs9f-A-65" value="- SeaSquareClicked(sender: object, e: System.EventArgs): void" style="text;align=left;verticalAlign=top;spacingLeft=4;spacingRight=4;overflow=hidden;rotatable=0;points=[[0,0.5],[1,0.5]];portConstraint=eastwest;" parent="A3eWRK3vAUM6zeVs9f-A-3" vertex="1">
          <mxGeometry y="528" width="570" height="26" as="geometry" />
        </mxCell>
        <mxCell id="A3eWRK3vAUM6zeVs9f-A-66" value="- SetShipsToSelectedSquares(): void" style="text;align=left;verticalAlign=top;spacingLeft=4;spacingRight=4;overflow=hidden;rotatable=0;points=[[0,0.5],[1,0.5]];portConstraint=eastwest;" parent="A3eWRK3vAUM6zeVs9f-A-3" vertex="1">
          <mxGeometry y="554" width="570" height="26" as="geometry" />
        </mxCell>
        <mxCell id="A3eWRK3vAUM6zeVs9f-A-67" value="- SetFoamAroundShip(sq: SeaSquare): void" style="text;align=left;verticalAlign=top;spacingLeft=4;spacingRight=4;overflow=hidden;rotatable=0;points=[[0,0.5],[1,0.5]];portConstraint=eastwest;" parent="A3eWRK3vAUM6zeVs9f-A-3" vertex="1">
          <mxGeometry y="580" width="570" height="26" as="geometry" />
        </mxCell>
        <mxCell id="A3eWRK3vAUM6zeVs9f-A-68" value="- MouseEnterSeaSquare(sender: object, e: System.EventArgs): void" style="text;align=left;verticalAlign=top;spacingLeft=4;spacingRight=4;overflow=hidden;rotatable=0;points=[[0,0.5],[1,0.5]];portConstraint=eastwest;" parent="A3eWRK3vAUM6zeVs9f-A-3" vertex="1">
          <mxGeometry y="606" width="570" height="26" as="geometry" />
        </mxCell>
        <mxCell id="A3eWRK3vAUM6zeVs9f-A-69" value="- SelectSeaSquareOnMouseEnter(sq: SeaSquare): bool" style="text;align=left;verticalAlign=top;spacingLeft=4;spacingRight=4;overflow=hidden;rotatable=0;points=[[0,0.5],[1,0.5]];portConstraint=eastwest;" parent="A3eWRK3vAUM6zeVs9f-A-3" vertex="1">
          <mxGeometry y="632" width="570" height="26" as="geometry" />
        </mxCell>
        <mxCell id="A3eWRK3vAUM6zeVs9f-A-70" value="- SetSelected(seaSquare: SeaSquare): bool" style="text;align=left;verticalAlign=top;spacingLeft=4;spacingRight=4;overflow=hidden;rotatable=0;points=[[0,0.5],[1,0.5]];portConstraint=eastwest;" parent="A3eWRK3vAUM6zeVs9f-A-3" vertex="1">
          <mxGeometry y="658" width="570" height="26" as="geometry" />
        </mxCell>
        <mxCell id="A3eWRK3vAUM6zeVs9f-A-71" value="+ SetIXIYForOrientation(i: int, seaSquare: SeaSquare, iX: out int, iY: out int, actualPosIndex: out int): void" style="text;align=left;verticalAlign=top;spacingLeft=4;spacingRight=4;overflow=hidden;rotatable=0;points=[[0,0.5],[1,0.5]];portConstraint=eastwest;" parent="A3eWRK3vAUM6zeVs9f-A-3" vertex="1">
          <mxGeometry y="684" width="570" height="26" as="geometry" />
        </mxCell>
        <mxCell id="A3eWRK3vAUM6zeVs9f-A-72" value="+ IsThisSpaceAroundShip(actualPosX: int, actualPosY: int, iX: int, iY: int): bool" style="text;align=left;verticalAlign=top;spacingLeft=4;spacingRight=4;overflow=hidden;rotatable=0;points=[[0,0.5],[1,0.5]];portConstraint=eastwest;" parent="A3eWRK3vAUM6zeVs9f-A-3" vertex="1">
          <mxGeometry y="710" width="570" height="26" as="geometry" />
        </mxCell>
        <mxCell id="A3eWRK3vAUM6zeVs9f-A-73" value="+ CheckForShips(actualPosX: int, actualPosY: int, iX: int, iY: int): bool" style="text;align=left;verticalAlign=top;spacingLeft=4;spacingRight=4;overflow=hidden;rotatable=0;points=[[0,0.5],[1,0.5]];portConstraint=eastwest;" parent="A3eWRK3vAUM6zeVs9f-A-3" vertex="1">
          <mxGeometry y="736" width="570" height="26" as="geometry" />
        </mxCell>
        <mxCell id="A3eWRK3vAUM6zeVs9f-A-74" value="- MouseLeaveOverSeaSquare(sender: object, e: System.EventArgs): void" style="text;align=left;verticalAlign=top;spacingLeft=4;spacingRight=4;overflow=hidden;rotatable=0;points=[[0,0.5],[1,0.5]];portConstraint=eastwest;" parent="A3eWRK3vAUM6zeVs9f-A-3" vertex="1">
          <mxGeometry y="762" width="570" height="26" as="geometry" />
        </mxCell>
        <mxCell id="A3eWRK3vAUM6zeVs9f-A-75" value="- ResetOldSelectedSquares(): void" style="text;align=left;verticalAlign=top;spacingLeft=4;spacingRight=4;overflow=hidden;rotatable=0;points=[[0,0.5],[1,0.5]];portConstraint=eastwest;" parent="A3eWRK3vAUM6zeVs9f-A-3" vertex="1">
          <mxGeometry y="788" width="570" height="26" as="geometry" />
        </mxCell>
        <mxCell id="A3eWRK3vAUM6zeVs9f-A-76" value="- RemoveShipFromBoard(): void" style="text;align=left;verticalAlign=top;spacingLeft=4;spacingRight=4;overflow=hidden;rotatable=0;points=[[0,0.5],[1,0.5]];portConstraint=eastwest;" parent="A3eWRK3vAUM6zeVs9f-A-3" vertex="1">
          <mxGeometry y="814" width="570" height="26" as="geometry" />
        </mxCell>
        <mxCell id="A3eWRK3vAUM6zeVs9f-A-77" value="- ResetField(): void" style="text;align=left;verticalAlign=top;spacingLeft=4;spacingRight=4;overflow=hidden;rotatable=0;points=[[0,0.5],[1,0.5]];portConstraint=eastwest;" parent="A3eWRK3vAUM6zeVs9f-A-3" vertex="1">
          <mxGeometry y="840" width="570" height="26" as="geometry" />
        </mxCell>
        <mxCell id="A3eWRK3vAUM6zeVs9f-A-78" value="+ ClearBoard(sender: object, e: System.EventArgs): void" style="text;align=left;verticalAlign=top;spacingLeft=4;spacingRight=4;overflow=hidden;rotatable=0;points=[[0,0.5],[1,0.5]];portConstraint=eastwest;" parent="A3eWRK3vAUM6zeVs9f-A-3" vertex="1">
          <mxGeometry y="866" width="570" height="26" as="geometry" />
        </mxCell>
        <mxCell id="A3eWRK3vAUM6zeVs9f-A-79" value="+ SetController(controller: BattleshipGameController): void" style="text;align=left;verticalAlign=top;spacingLeft=4;spacingRight=4;overflow=hidden;rotatable=0;points=[[0,0.5],[1,0.5]];portConstraint=eastwest;" parent="A3eWRK3vAUM6zeVs9f-A-3" vertex="1">
          <mxGeometry y="892" width="570" height="26" as="geometry" />
        </mxCell>
        <mxCell id="A3eWRK3vAUM6zeVs9f-A-80" value="+ Update(game: BattleshipGame): void" style="text;align=left;verticalAlign=top;spacingLeft=4;spacingRight=4;overflow=hidden;rotatable=0;points=[[0,0.5],[1,0.5]];portConstraint=eastwest;" parent="A3eWRK3vAUM6zeVs9f-A-3" vertex="1">
          <mxGeometry y="918" width="570" height="26" as="geometry" />
        </mxCell>
        <mxCell id="A3eWRK3vAUM6zeVs9f-A-16" value="GameStatusView" style="swimlane;fontStyle=2;align=center;verticalAlign=top;childLayout=stackLayout;horizontal=1;startSize=26;horizontalStack=0;resizeParent=1;resizeLast=0;collapsible=1;marginBottom=0;rounded=0;shadow=0;strokeWidth=1;" parent="1" vertex="1">
          <mxGeometry x="-1510" y="730" width="320" height="120" as="geometry">
            <mxRectangle x="230" y="140" width="160" height="26" as="alternateBounds" />
          </mxGeometry>
        </mxCell>
        <mxCell id="A3eWRK3vAUM6zeVs9f-A-17" value="- controller: BattleshipGameController" style="text;align=left;verticalAlign=top;spacingLeft=4;spacingRight=4;overflow=hidden;rotatable=0;points=[[0,0.5],[1,0.5]];portConstraint=eastwest;" parent="A3eWRK3vAUM6zeVs9f-A-16" vertex="1">
          <mxGeometry y="26" width="320" height="22" as="geometry" />
        </mxCell>
        <mxCell id="A3eWRK3vAUM6zeVs9f-A-22" value="" style="line;html=1;strokeWidth=1;align=left;verticalAlign=middle;spacingTop=-1;spacingLeft=3;spacingRight=3;rotatable=0;labelPosition=right;points=[];portConstraint=eastwest;" parent="A3eWRK3vAUM6zeVs9f-A-16" vertex="1">
          <mxGeometry y="48" width="320" height="8" as="geometry" />
        </mxCell>
        <mxCell id="A3eWRK3vAUM6zeVs9f-A-23" value="+ GameStatusView(controller: BattleshipGameController)" style="text;align=left;verticalAlign=top;spacingLeft=4;spacingRight=4;overflow=hidden;rotatable=0;points=[[0,0.5],[1,0.5]];portConstraint=eastwest;" parent="A3eWRK3vAUM6zeVs9f-A-16" vertex="1">
          <mxGeometry y="56" width="320" height="26" as="geometry" />
        </mxCell>
        <mxCell id="A3eWRK3vAUM6zeVs9f-A-24" value="+ Update(game: BattleshipGame): void" style="text;align=left;verticalAlign=top;spacingLeft=4;spacingRight=4;overflow=hidden;rotatable=0;points=[[0,0.5],[1,0.5]];portConstraint=eastwest;" parent="A3eWRK3vAUM6zeVs9f-A-16" vertex="1">
          <mxGeometry y="82" width="320" height="26" as="geometry" />
        </mxCell>
        <mxCell id="A3eWRK3vAUM6zeVs9f-A-29" value="" style="whiteSpace=wrap;html=1;fontSize=12;" parent="1" vertex="1">
          <mxGeometry x="-1020" y="120" width="360" height="340" as="geometry" />
        </mxCell>
        <mxCell id="A3eWRK3vAUM6zeVs9f-A-30" value="Controller" style="text;html=1;align=center;verticalAlign=middle;whiteSpace=wrap;rounded=0;fontSize=18;fontStyle=1" parent="1" vertex="1">
          <mxGeometry x="-870" y="120" width="60" height="30" as="geometry" />
        </mxCell>
        <mxCell id="A3eWRK3vAUM6zeVs9f-A-31" value="BattleshipGameController" style="swimlane;fontStyle=2;align=center;verticalAlign=top;childLayout=stackLayout;horizontal=1;startSize=26;horizontalStack=0;resizeParent=1;resizeLast=0;collapsible=1;marginBottom=0;rounded=0;shadow=0;strokeWidth=1;" parent="1" vertex="1">
          <mxGeometry x="-990" y="220" width="300" height="170" as="geometry">
            <mxRectangle x="230" y="140" width="160" height="26" as="alternateBounds" />
          </mxGeometry>
        </mxCell>
        <mxCell id="A3eWRK3vAUM6zeVs9f-A-32" value="- game: BattleshipGame" style="text;align=left;verticalAlign=top;spacingLeft=4;spacingRight=4;overflow=hidden;rotatable=0;points=[[0,0.5],[1,0.5]];portConstraint=eastwest;" parent="A3eWRK3vAUM6zeVs9f-A-31" vertex="1">
          <mxGeometry y="26" width="300" height="26" as="geometry" />
        </mxCell>
        <mxCell id="A3eWRK3vAUM6zeVs9f-A-37" value="" style="line;html=1;strokeWidth=1;align=left;verticalAlign=middle;spacingTop=-1;spacingLeft=3;spacingRight=3;rotatable=0;labelPosition=right;points=[];portConstraint=eastwest;" parent="A3eWRK3vAUM6zeVs9f-A-31" vertex="1">
          <mxGeometry y="52" width="300" height="8" as="geometry" />
        </mxCell>
        <mxCell id="A3eWRK3vAUM6zeVs9f-A-38" value="+ BattleshipGameController(game: BattleshipGame)" style="text;align=left;verticalAlign=top;spacingLeft=4;spacingRight=4;overflow=hidden;rotatable=0;points=[[0,0.5],[1,0.5]];portConstraint=eastwest;" parent="A3eWRK3vAUM6zeVs9f-A-31" vertex="1">
          <mxGeometry y="60" width="300" height="26" as="geometry" />
        </mxCell>
        <mxCell id="A3eWRK3vAUM6zeVs9f-A-39" value="+ Registerview(view: IGameView): void" style="text;align=left;verticalAlign=top;spacingLeft=4;spacingRight=4;overflow=hidden;rotatable=0;points=[[0,0.5],[1,0.5]];portConstraint=eastwest;" parent="A3eWRK3vAUM6zeVs9f-A-31" vertex="1">
          <mxGeometry y="86" width="300" height="26" as="geometry" />
        </mxCell>
        <mxCell id="A3eWRK3vAUM6zeVs9f-A-40" value="+ InitializeGame(): void" style="text;align=left;verticalAlign=top;spacingLeft=4;spacingRight=4;overflow=hidden;rotatable=0;points=[[0,0.5],[1,0.5]];portConstraint=eastwest;" parent="A3eWRK3vAUM6zeVs9f-A-31" vertex="1">
          <mxGeometry y="112" width="300" height="26" as="geometry" />
        </mxCell>
        <mxCell id="A3eWRK3vAUM6zeVs9f-A-41" value="+ HandlePlayerInput(coordinate: Coordinate): void" style="text;align=left;verticalAlign=top;spacingLeft=4;spacingRight=4;overflow=hidden;rotatable=0;points=[[0,0.5],[1,0.5]];portConstraint=eastwest;" parent="A3eWRK3vAUM6zeVs9f-A-31" vertex="1">
          <mxGeometry y="138" width="300" height="26" as="geometry" />
        </mxCell>
        <mxCell id="A3eWRK3vAUM6zeVs9f-A-81" value="InitializedState" style="swimlane;fontStyle=2;align=center;verticalAlign=top;childLayout=stackLayout;horizontal=1;startSize=26;horizontalStack=0;resizeParent=1;resizeLast=0;collapsible=1;marginBottom=0;rounded=0;shadow=0;strokeWidth=1;" parent="1" vertex="1">
          <mxGeometry x="-380" y="1250" width="380" height="140" as="geometry">
            <mxRectangle x="230" y="140" width="160" height="26" as="alternateBounds" />
          </mxGeometry>
        </mxCell>
        <mxCell id="A3eWRK3vAUM6zeVs9f-A-82" value="+ AfterEnterState(game: BattleshipGame): void" style="text;align=left;verticalAlign=top;spacingLeft=4;spacingRight=4;overflow=hidden;rotatable=0;points=[[0,0.5],[1,0.5]];portConstraint=eastwest;" parent="A3eWRK3vAUM6zeVs9f-A-81" vertex="1">
          <mxGeometry y="26" width="380" height="26" as="geometry" />
        </mxCell>
        <mxCell id="A3eWRK3vAUM6zeVs9f-A-83" value="+ EnterState(game: BattleshipGame): void" style="text;align=left;verticalAlign=top;spacingLeft=4;spacingRight=4;overflow=hidden;rotatable=0;points=[[0,0.5],[1,0.5]];portConstraint=eastwest;" parent="A3eWRK3vAUM6zeVs9f-A-81" vertex="1">
          <mxGeometry y="52" width="380" height="26" as="geometry" />
        </mxCell>
        <mxCell id="A3eWRK3vAUM6zeVs9f-A-84" value="+ ExitState(game: BattleshipGame): void" style="text;align=left;verticalAlign=top;spacingLeft=4;spacingRight=4;overflow=hidden;rotatable=0;points=[[0,0.5],[1,0.5]];portConstraint=eastwest;" parent="A3eWRK3vAUM6zeVs9f-A-81" vertex="1">
          <mxGeometry y="78" width="380" height="26" as="geometry" />
        </mxCell>
        <mxCell id="A3eWRK3vAUM6zeVs9f-A-85" value="+ HandleInput(game: BattleshipGame, coordinate: Coordinate): void" style="text;align=left;verticalAlign=top;spacingLeft=4;spacingRight=4;overflow=hidden;rotatable=0;points=[[0,0.5],[1,0.5]];portConstraint=eastwest;" parent="A3eWRK3vAUM6zeVs9f-A-81" vertex="1">
          <mxGeometry y="104" width="380" height="26" as="geometry" />
        </mxCell>
        <mxCell id="A3eWRK3vAUM6zeVs9f-A-86" value="IBattleshipGameState" style="swimlane;fontStyle=2;align=center;verticalAlign=top;childLayout=stackLayout;horizontal=1;startSize=26;horizontalStack=0;resizeParent=1;resizeLast=0;collapsible=1;marginBottom=0;rounded=0;shadow=0;strokeWidth=1;" parent="1" vertex="1">
          <mxGeometry x="-380" y="870" width="380" height="140" as="geometry">
            <mxRectangle x="230" y="140" width="160" height="26" as="alternateBounds" />
          </mxGeometry>
        </mxCell>
        <mxCell id="A3eWRK3vAUM6zeVs9f-A-87" value="+ AfterEnterState(game: BattleshipGame): void" style="text;align=left;verticalAlign=top;spacingLeft=4;spacingRight=4;overflow=hidden;rotatable=0;points=[[0,0.5],[1,0.5]];portConstraint=eastwest;" parent="A3eWRK3vAUM6zeVs9f-A-86" vertex="1">
          <mxGeometry y="26" width="380" height="26" as="geometry" />
        </mxCell>
        <mxCell id="A3eWRK3vAUM6zeVs9f-A-88" value="+ EnterState(game: BattleshipGame): void" style="text;align=left;verticalAlign=top;spacingLeft=4;spacingRight=4;overflow=hidden;rotatable=0;points=[[0,0.5],[1,0.5]];portConstraint=eastwest;" parent="A3eWRK3vAUM6zeVs9f-A-86" vertex="1">
          <mxGeometry y="52" width="380" height="26" as="geometry" />
        </mxCell>
        <mxCell id="A3eWRK3vAUM6zeVs9f-A-89" value="+ ExitState(game: BattleshipGame): void" style="text;align=left;verticalAlign=top;spacingLeft=4;spacingRight=4;overflow=hidden;rotatable=0;points=[[0,0.5],[1,0.5]];portConstraint=eastwest;" parent="A3eWRK3vAUM6zeVs9f-A-86" vertex="1">
          <mxGeometry y="78" width="380" height="26" as="geometry" />
        </mxCell>
        <mxCell id="A3eWRK3vAUM6zeVs9f-A-90" value="+ HandleInput(game: BattleshipGame, coordinate: Coordinate): void" style="text;align=left;verticalAlign=top;spacingLeft=4;spacingRight=4;overflow=hidden;rotatable=0;points=[[0,0.5],[1,0.5]];portConstraint=eastwest;" parent="A3eWRK3vAUM6zeVs9f-A-86" vertex="1">
          <mxGeometry y="104" width="380" height="26" as="geometry" />
        </mxCell>
        <mxCell id="A3eWRK3vAUM6zeVs9f-A-91" value="Players1TurnState" style="swimlane;fontStyle=2;align=center;verticalAlign=top;childLayout=stackLayout;horizontal=1;startSize=26;horizontalStack=0;resizeParent=1;resizeLast=0;collapsible=1;marginBottom=0;rounded=0;shadow=0;strokeWidth=1;" parent="1" vertex="1">
          <mxGeometry x="-360" y="1630" width="380" height="80" as="geometry">
            <mxRectangle x="230" y="140" width="160" height="26" as="alternateBounds" />
          </mxGeometry>
        </mxCell>
        <mxCell id="A3eWRK3vAUM6zeVs9f-A-93" value="+ EnterState(game: BattleshipGame): void" style="text;align=left;verticalAlign=top;spacingLeft=4;spacingRight=4;overflow=hidden;rotatable=0;points=[[0,0.5],[1,0.5]];portConstraint=eastwest;" parent="A3eWRK3vAUM6zeVs9f-A-91" vertex="1">
          <mxGeometry y="26" width="380" height="26" as="geometry" />
        </mxCell>
        <mxCell id="A3eWRK3vAUM6zeVs9f-A-95" value="+ HandleInput(game: BattleshipGame, coordinate: Coordinate): void" style="text;align=left;verticalAlign=top;spacingLeft=4;spacingRight=4;overflow=hidden;rotatable=0;points=[[0,0.5],[1,0.5]];portConstraint=eastwest;" parent="A3eWRK3vAUM6zeVs9f-A-91" vertex="1">
          <mxGeometry y="52" width="380" height="26" as="geometry" />
        </mxCell>
        <mxCell id="A3eWRK3vAUM6zeVs9f-A-96" value="Players2TurnState" style="swimlane;fontStyle=2;align=center;verticalAlign=top;childLayout=stackLayout;horizontal=1;startSize=26;horizontalStack=0;resizeParent=1;resizeLast=0;collapsible=1;marginBottom=0;rounded=0;shadow=0;strokeWidth=1;" parent="1" vertex="1">
          <mxGeometry x="150" y="1630" width="380" height="80" as="geometry">
            <mxRectangle x="230" y="140" width="160" height="26" as="alternateBounds" />
          </mxGeometry>
        </mxCell>
        <mxCell id="A3eWRK3vAUM6zeVs9f-A-97" value="+ EnterState(game: BattleshipGame): void" style="text;align=left;verticalAlign=top;spacingLeft=4;spacingRight=4;overflow=hidden;rotatable=0;points=[[0,0.5],[1,0.5]];portConstraint=eastwest;" parent="A3eWRK3vAUM6zeVs9f-A-96" vertex="1">
          <mxGeometry y="26" width="380" height="26" as="geometry" />
        </mxCell>
        <mxCell id="A3eWRK3vAUM6zeVs9f-A-98" value="+ HandleInput(game: BattleshipGame, coordinate: Coordinate): void" style="text;align=left;verticalAlign=top;spacingLeft=4;spacingRight=4;overflow=hidden;rotatable=0;points=[[0,0.5],[1,0.5]];portConstraint=eastwest;" parent="A3eWRK3vAUM6zeVs9f-A-96" vertex="1">
          <mxGeometry y="52" width="380" height="26" as="geometry" />
        </mxCell>
        <mxCell id="A3eWRK3vAUM6zeVs9f-A-99" value="PlayersTurnState" style="swimlane;fontStyle=2;align=center;verticalAlign=top;childLayout=stackLayout;horizontal=1;startSize=26;horizontalStack=0;resizeParent=1;resizeLast=0;collapsible=1;marginBottom=0;rounded=0;shadow=0;strokeWidth=1;" parent="1" vertex="1">
          <mxGeometry x="-100" y="1435" width="380" height="140" as="geometry">
            <mxRectangle x="230" y="140" width="160" height="26" as="alternateBounds" />
          </mxGeometry>
        </mxCell>
        <mxCell id="A3eWRK3vAUM6zeVs9f-A-100" value="+ AfterEnterState(game: BattleshipGame): void" style="text;align=left;verticalAlign=top;spacingLeft=4;spacingRight=4;overflow=hidden;rotatable=0;points=[[0,0.5],[1,0.5]];portConstraint=eastwest;" parent="A3eWRK3vAUM6zeVs9f-A-99" vertex="1">
          <mxGeometry y="26" width="380" height="26" as="geometry" />
        </mxCell>
        <mxCell id="A3eWRK3vAUM6zeVs9f-A-101" value="+ EnterState(game: BattleshipGame): void" style="text;align=left;verticalAlign=top;spacingLeft=4;spacingRight=4;overflow=hidden;rotatable=0;points=[[0,0.5],[1,0.5]];portConstraint=eastwest;" parent="A3eWRK3vAUM6zeVs9f-A-99" vertex="1">
          <mxGeometry y="52" width="380" height="26" as="geometry" />
        </mxCell>
        <mxCell id="A3eWRK3vAUM6zeVs9f-A-102" value="+ ExitState(game: BattleshipGame): void" style="text;align=left;verticalAlign=top;spacingLeft=4;spacingRight=4;overflow=hidden;rotatable=0;points=[[0,0.5],[1,0.5]];portConstraint=eastwest;" parent="A3eWRK3vAUM6zeVs9f-A-99" vertex="1">
          <mxGeometry y="78" width="380" height="26" as="geometry" />
        </mxCell>
        <mxCell id="A3eWRK3vAUM6zeVs9f-A-103" value="+ HandleInput(game: BattleshipGame, coordinate: Coordinate): void" style="text;align=left;verticalAlign=top;spacingLeft=4;spacingRight=4;overflow=hidden;rotatable=0;points=[[0,0.5],[1,0.5]];portConstraint=eastwest;" parent="A3eWRK3vAUM6zeVs9f-A-99" vertex="1">
          <mxGeometry y="104" width="380" height="26" as="geometry" />
        </mxCell>
        <mxCell id="A3eWRK3vAUM6zeVs9f-A-104" value="UninitializedState" style="swimlane;fontStyle=2;align=center;verticalAlign=top;childLayout=stackLayout;horizontal=1;startSize=26;horizontalStack=0;resizeParent=1;resizeLast=0;collapsible=1;marginBottom=0;rounded=0;shadow=0;strokeWidth=1;" parent="1" vertex="1">
          <mxGeometry x="170" y="1250" width="380" height="140" as="geometry">
            <mxRectangle x="230" y="140" width="160" height="26" as="alternateBounds" />
          </mxGeometry>
        </mxCell>
        <mxCell id="A3eWRK3vAUM6zeVs9f-A-105" value="+ AfterEnterState(game: BattleshipGame): void" style="text;align=left;verticalAlign=top;spacingLeft=4;spacingRight=4;overflow=hidden;rotatable=0;points=[[0,0.5],[1,0.5]];portConstraint=eastwest;" parent="A3eWRK3vAUM6zeVs9f-A-104" vertex="1">
          <mxGeometry y="26" width="380" height="26" as="geometry" />
        </mxCell>
        <mxCell id="A3eWRK3vAUM6zeVs9f-A-106" value="+ EnterState(game: BattleshipGame): void" style="text;align=left;verticalAlign=top;spacingLeft=4;spacingRight=4;overflow=hidden;rotatable=0;points=[[0,0.5],[1,0.5]];portConstraint=eastwest;" parent="A3eWRK3vAUM6zeVs9f-A-104" vertex="1">
          <mxGeometry y="52" width="380" height="26" as="geometry" />
        </mxCell>
        <mxCell id="A3eWRK3vAUM6zeVs9f-A-107" value="+ ExitState(game: BattleshipGame): void" style="text;align=left;verticalAlign=top;spacingLeft=4;spacingRight=4;overflow=hidden;rotatable=0;points=[[0,0.5],[1,0.5]];portConstraint=eastwest;" parent="A3eWRK3vAUM6zeVs9f-A-104" vertex="1">
          <mxGeometry y="78" width="380" height="26" as="geometry" />
        </mxCell>
        <mxCell id="A3eWRK3vAUM6zeVs9f-A-108" value="+ HandleInput(game: BattleshipGame, coordinate: Coordinate): void" style="text;align=left;verticalAlign=top;spacingLeft=4;spacingRight=4;overflow=hidden;rotatable=0;points=[[0,0.5],[1,0.5]];portConstraint=eastwest;" parent="A3eWRK3vAUM6zeVs9f-A-104" vertex="1">
          <mxGeometry y="104" width="380" height="26" as="geometry" />
        </mxCell>
        <mxCell id="A3eWRK3vAUM6zeVs9f-A-109" value="Cruiser" style="swimlane;fontStyle=2;align=center;verticalAlign=top;childLayout=stackLayout;horizontal=1;startSize=26;horizontalStack=0;resizeParent=1;resizeLast=0;collapsible=1;marginBottom=0;rounded=0;shadow=0;strokeWidth=1;" parent="1" vertex="1">
          <mxGeometry x="110" y="1100" width="260" height="100" as="geometry">
            <mxRectangle x="230" y="140" width="160" height="26" as="alternateBounds" />
          </mxGeometry>
        </mxCell>
        <mxCell id="A3eWRK3vAUM6zeVs9f-A-110" value="+ ShipLength: int" style="text;align=left;verticalAlign=top;spacingLeft=4;spacingRight=4;overflow=hidden;rotatable=0;points=[[0,0.5],[1,0.5]];portConstraint=eastwest;" parent="A3eWRK3vAUM6zeVs9f-A-109" vertex="1">
          <mxGeometry y="26" width="260" height="22" as="geometry" />
        </mxCell>
        <mxCell id="A3eWRK3vAUM6zeVs9f-A-111" value="+ shipType: string" style="text;align=left;verticalAlign=top;spacingLeft=4;spacingRight=4;overflow=hidden;rotatable=0;points=[[0,0.5],[1,0.5]];portConstraint=eastwest;" parent="A3eWRK3vAUM6zeVs9f-A-109" vertex="1">
          <mxGeometry y="48" width="260" height="26" as="geometry" />
        </mxCell>
        <mxCell id="A3eWRK3vAUM6zeVs9f-A-112" value="+ ShipColor: Color" style="text;align=left;verticalAlign=top;spacingLeft=4;spacingRight=4;overflow=hidden;rotatable=0;points=[[0,0.5],[1,0.5]];portConstraint=eastwest;" parent="A3eWRK3vAUM6zeVs9f-A-109" vertex="1">
          <mxGeometry y="74" width="260" height="26" as="geometry" />
        </mxCell>
        <mxCell id="A3eWRK3vAUM6zeVs9f-A-113" value="Destroyer" style="swimlane;fontStyle=2;align=center;verticalAlign=top;childLayout=stackLayout;horizontal=1;startSize=26;horizontalStack=0;resizeParent=1;resizeLast=0;collapsible=1;marginBottom=0;rounded=0;shadow=0;strokeWidth=1;" parent="1" vertex="1">
          <mxGeometry x="400" y="980" width="260" height="100" as="geometry">
            <mxRectangle x="230" y="140" width="160" height="26" as="alternateBounds" />
          </mxGeometry>
        </mxCell>
        <mxCell id="A3eWRK3vAUM6zeVs9f-A-114" value="+ ShipLength: int" style="text;align=left;verticalAlign=top;spacingLeft=4;spacingRight=4;overflow=hidden;rotatable=0;points=[[0,0.5],[1,0.5]];portConstraint=eastwest;" parent="A3eWRK3vAUM6zeVs9f-A-113" vertex="1">
          <mxGeometry y="26" width="260" height="22" as="geometry" />
        </mxCell>
        <mxCell id="A3eWRK3vAUM6zeVs9f-A-115" value="+ shipType: string" style="text;align=left;verticalAlign=top;spacingLeft=4;spacingRight=4;overflow=hidden;rotatable=0;points=[[0,0.5],[1,0.5]];portConstraint=eastwest;" parent="A3eWRK3vAUM6zeVs9f-A-113" vertex="1">
          <mxGeometry y="48" width="260" height="26" as="geometry" />
        </mxCell>
        <mxCell id="A3eWRK3vAUM6zeVs9f-A-116" value="+ ShipColor: Color" style="text;align=left;verticalAlign=top;spacingLeft=4;spacingRight=4;overflow=hidden;rotatable=0;points=[[0,0.5],[1,0.5]];portConstraint=eastwest;" parent="A3eWRK3vAUM6zeVs9f-A-113" vertex="1">
          <mxGeometry y="74" width="260" height="26" as="geometry" />
        </mxCell>
        <mxCell id="A3eWRK3vAUM6zeVs9f-A-117" value="Submarine" style="swimlane;fontStyle=2;align=center;verticalAlign=top;childLayout=stackLayout;horizontal=1;startSize=26;horizontalStack=0;resizeParent=1;resizeLast=0;collapsible=1;marginBottom=0;rounded=0;shadow=0;strokeWidth=1;" parent="1" vertex="1">
          <mxGeometry x="400" y="1100" width="260" height="100" as="geometry">
            <mxRectangle x="230" y="140" width="160" height="26" as="alternateBounds" />
          </mxGeometry>
        </mxCell>
        <mxCell id="A3eWRK3vAUM6zeVs9f-A-118" value="+ ShipLength: int" style="text;align=left;verticalAlign=top;spacingLeft=4;spacingRight=4;overflow=hidden;rotatable=0;points=[[0,0.5],[1,0.5]];portConstraint=eastwest;" parent="A3eWRK3vAUM6zeVs9f-A-117" vertex="1">
          <mxGeometry y="26" width="260" height="22" as="geometry" />
        </mxCell>
        <mxCell id="A3eWRK3vAUM6zeVs9f-A-119" value="+ shipType: string" style="text;align=left;verticalAlign=top;spacingLeft=4;spacingRight=4;overflow=hidden;rotatable=0;points=[[0,0.5],[1,0.5]];portConstraint=eastwest;" parent="A3eWRK3vAUM6zeVs9f-A-117" vertex="1">
          <mxGeometry y="48" width="260" height="26" as="geometry" />
        </mxCell>
        <mxCell id="A3eWRK3vAUM6zeVs9f-A-120" value="+ ShipColor: Color" style="text;align=left;verticalAlign=top;spacingLeft=4;spacingRight=4;overflow=hidden;rotatable=0;points=[[0,0.5],[1,0.5]];portConstraint=eastwest;" parent="A3eWRK3vAUM6zeVs9f-A-117" vertex="1">
          <mxGeometry y="74" width="260" height="26" as="geometry" />
        </mxCell>
        <mxCell id="A3eWRK3vAUM6zeVs9f-A-121" value="ShipCreator" style="swimlane;fontStyle=2;align=center;verticalAlign=top;childLayout=stackLayout;horizontal=1;startSize=26;horizontalStack=0;resizeParent=1;resizeLast=0;collapsible=1;marginBottom=0;rounded=0;shadow=0;strokeWidth=1;" parent="1" vertex="1">
          <mxGeometry x="450" y="802" width="260" height="50" as="geometry">
            <mxRectangle x="230" y="140" width="160" height="26" as="alternateBounds" />
          </mxGeometry>
        </mxCell>
        <mxCell id="A3eWRK3vAUM6zeVs9f-A-122" value="+ GetNewShip(ship: Ship): static" style="text;align=left;verticalAlign=top;spacingLeft=4;spacingRight=4;overflow=hidden;rotatable=0;points=[[0,0.5],[1,0.5]];portConstraint=eastwest;" parent="A3eWRK3vAUM6zeVs9f-A-121" vertex="1">
          <mxGeometry y="26" width="260" height="22" as="geometry" />
        </mxCell>
        <mxCell id="A3eWRK3vAUM6zeVs9f-A-125" value="Ship" style="swimlane;fontStyle=0;align=center;verticalAlign=top;childLayout=stackLayout;horizontal=1;startSize=26;horizontalStack=0;resizeParent=1;resizeLast=0;collapsible=1;marginBottom=0;rounded=0;shadow=0;strokeWidth=1;" parent="1" vertex="1">
          <mxGeometry x="50" y="720" width="380" height="214" as="geometry">
            <mxRectangle x="340" y="380" width="170" height="26" as="alternateBounds" />
          </mxGeometry>
        </mxCell>
        <mxCell id="A3eWRK3vAUM6zeVs9f-A-130" value="+ IsHorizontal: boolean" style="text;align=left;verticalAlign=top;spacingLeft=4;spacingRight=4;overflow=hidden;rotatable=0;points=[[0,0.5],[1,0.5]];portConstraint=eastwest;" parent="A3eWRK3vAUM6zeVs9f-A-125" vertex="1">
          <mxGeometry y="26" width="380" height="26" as="geometry" />
        </mxCell>
        <mxCell id="A3eWRK3vAUM6zeVs9f-A-133" value="+ ShipLength: int" style="text;align=left;verticalAlign=top;spacingLeft=4;spacingRight=4;overflow=hidden;rotatable=0;points=[[0,0.5],[1,0.5]];portConstraint=eastwest;" parent="A3eWRK3vAUM6zeVs9f-A-125" vertex="1">
          <mxGeometry y="52" width="380" height="26" as="geometry" />
        </mxCell>
        <mxCell id="A3eWRK3vAUM6zeVs9f-A-134" value="+ ShipColor: Color" style="text;align=left;verticalAlign=top;spacingLeft=4;spacingRight=4;overflow=hidden;rotatable=0;points=[[0,0.5],[1,0.5]];portConstraint=eastwest;" parent="A3eWRK3vAUM6zeVs9f-A-125" vertex="1">
          <mxGeometry y="78" width="380" height="24" as="geometry" />
        </mxCell>
        <mxCell id="A3eWRK3vAUM6zeVs9f-A-135" value="+ ShipImage: Image" style="text;align=left;verticalAlign=top;spacingLeft=4;spacingRight=4;overflow=hidden;rotatable=0;points=[[0,0.5],[1,0.5]];portConstraint=eastwest;" parent="A3eWRK3vAUM6zeVs9f-A-125" vertex="1">
          <mxGeometry y="102" width="380" height="24" as="geometry" />
        </mxCell>
        <mxCell id="A3eWRK3vAUM6zeVs9f-A-129" value="" style="line;html=1;strokeWidth=1;align=left;verticalAlign=middle;spacingTop=-1;spacingLeft=3;spacingRight=3;rotatable=0;labelPosition=right;points=[];portConstraint=eastwest;" parent="A3eWRK3vAUM6zeVs9f-A-125" vertex="1">
          <mxGeometry y="126" width="380" height="8" as="geometry" />
        </mxCell>
        <mxCell id="A3eWRK3vAUM6zeVs9f-A-131" value="+ shipType: string" style="text;align=left;verticalAlign=top;spacingLeft=4;spacingRight=4;overflow=hidden;rotatable=0;points=[[0,0.5],[1,0.5]];portConstraint=eastwest;" parent="A3eWRK3vAUM6zeVs9f-A-125" vertex="1">
          <mxGeometry y="134" width="380" height="24" as="geometry" />
        </mxCell>
        <mxCell id="A3eWRK3vAUM6zeVs9f-A-132" value="+ shipParts: List&lt;ShipSquare&gt;" style="text;align=left;verticalAlign=top;spacingLeft=4;spacingRight=4;overflow=hidden;rotatable=0;points=[[0,0.5],[1,0.5]];portConstraint=eastwest;" parent="A3eWRK3vAUM6zeVs9f-A-125" vertex="1">
          <mxGeometry y="158" width="380" height="26" as="geometry" />
        </mxCell>
        <mxCell id="apWPaVwmRc4C89GI6ApP-2" value="Coordinate" style="swimlane;fontStyle=0;align=center;verticalAlign=top;childLayout=stackLayout;horizontal=1;startSize=26;horizontalStack=0;resizeParent=1;resizeLast=0;collapsible=1;marginBottom=0;rounded=0;shadow=0;strokeWidth=1;" parent="1" vertex="1">
          <mxGeometry x="-450" y="1810" width="380" height="140" as="geometry">
            <mxRectangle x="340" y="380" width="170" height="26" as="alternateBounds" />
          </mxGeometry>
        </mxCell>
        <mxCell id="apWPaVwmRc4C89GI6ApP-3" value="+ X: int" style="text;align=left;verticalAlign=top;spacingLeft=4;spacingRight=4;overflow=hidden;rotatable=0;points=[[0,0.5],[1,0.5]];portConstraint=eastwest;" parent="apWPaVwmRc4C89GI6ApP-2" vertex="1">
          <mxGeometry y="26" width="380" height="26" as="geometry" />
        </mxCell>
        <mxCell id="apWPaVwmRc4C89GI6ApP-4" value="+ Y: int" style="text;align=left;verticalAlign=top;spacingLeft=4;spacingRight=4;overflow=hidden;rotatable=0;points=[[0,0.5],[1,0.5]];portConstraint=eastwest;" parent="apWPaVwmRc4C89GI6ApP-2" vertex="1">
          <mxGeometry y="52" width="380" height="26" as="geometry" />
        </mxCell>
        <mxCell id="apWPaVwmRc4C89GI6ApP-7" value="" style="line;html=1;strokeWidth=1;align=left;verticalAlign=middle;spacingTop=-1;spacingLeft=3;spacingRight=3;rotatable=0;labelPosition=right;points=[];portConstraint=eastwest;" parent="apWPaVwmRc4C89GI6ApP-2" vertex="1">
          <mxGeometry y="78" width="380" height="8" as="geometry" />
        </mxCell>
        <mxCell id="apWPaVwmRc4C89GI6ApP-8" value="+ Coordinate(x: int, y: int)" style="text;align=left;verticalAlign=top;spacingLeft=4;spacingRight=4;overflow=hidden;rotatable=0;points=[[0,0.5],[1,0.5]];portConstraint=eastwest;" parent="apWPaVwmRc4C89GI6ApP-2" vertex="1">
          <mxGeometry y="86" width="380" height="24" as="geometry" />
        </mxCell>
        <mxCell id="apWPaVwmRc4C89GI6ApP-9" value="+ ToString(): string" style="text;align=left;verticalAlign=top;spacingLeft=4;spacingRight=4;overflow=hidden;rotatable=0;points=[[0,0.5],[1,0.5]];portConstraint=eastwest;" parent="apWPaVwmRc4C89GI6ApP-2" vertex="1">
          <mxGeometry y="110" width="380" height="26" as="geometry" />
        </mxCell>
        <mxCell id="apWPaVwmRc4C89GI6ApP-11" value="GameBoard" style="swimlane;fontStyle=0;align=center;verticalAlign=top;childLayout=stackLayout;horizontal=1;startSize=26;horizontalStack=0;resizeParent=1;resizeLast=0;collapsible=1;marginBottom=0;rounded=0;shadow=0;strokeWidth=1;" parent="1" vertex="1">
          <mxGeometry x="410" y="1810" width="380" height="190" as="geometry">
            <mxRectangle x="340" y="380" width="170" height="26" as="alternateBounds" />
          </mxGeometry>
        </mxCell>
        <mxCell id="apWPaVwmRc4C89GI6ApP-23" value="- fieldSize: int" style="text;align=left;verticalAlign=top;spacingLeft=4;spacingRight=4;overflow=hidden;rotatable=0;points=[[0,0.5],[1,0.5]];portConstraint=eastwest;" parent="apWPaVwmRc4C89GI6ApP-11" vertex="1">
          <mxGeometry y="26" width="380" height="26" as="geometry" />
        </mxCell>
        <mxCell id="apWPaVwmRc4C89GI6ApP-19" value="- internalBoard: SeaSquare[,]" style="text;align=left;verticalAlign=top;spacingLeft=4;spacingRight=4;overflow=hidden;rotatable=0;points=[[0,0.5],[1,0.5]];portConstraint=eastwest;" parent="apWPaVwmRc4C89GI6ApP-11" vertex="1">
          <mxGeometry y="52" width="380" height="26" as="geometry" />
        </mxCell>
        <mxCell id="apWPaVwmRc4C89GI6ApP-13" value="+ BoardName: String" style="text;align=left;verticalAlign=top;spacingLeft=4;spacingRight=4;overflow=hidden;rotatable=0;points=[[0,0.5],[1,0.5]];portConstraint=eastwest;" parent="apWPaVwmRc4C89GI6ApP-11" vertex="1">
          <mxGeometry y="78" width="380" height="26" as="geometry" />
        </mxCell>
        <mxCell id="apWPaVwmRc4C89GI6ApP-16" value="" style="line;html=1;strokeWidth=1;align=left;verticalAlign=middle;spacingTop=-1;spacingLeft=3;spacingRight=3;rotatable=0;labelPosition=right;points=[];portConstraint=eastwest;" parent="apWPaVwmRc4C89GI6ApP-11" vertex="1">
          <mxGeometry y="104" width="380" height="8" as="geometry" />
        </mxCell>
        <mxCell id="apWPaVwmRc4C89GI6ApP-17" value="+ GameBoard(fieldSize: int, BoardName: String)" style="text;align=left;verticalAlign=top;spacingLeft=4;spacingRight=4;overflow=hidden;rotatable=0;points=[[0,0.5],[1,0.5]];portConstraint=eastwest;" parent="apWPaVwmRc4C89GI6ApP-11" vertex="1">
          <mxGeometry y="112" width="380" height="24" as="geometry" />
        </mxCell>
        <mxCell id="apWPaVwmRc4C89GI6ApP-18" value="+ GetBoard(): SeaSquare[,]" style="text;align=left;verticalAlign=top;spacingLeft=4;spacingRight=4;overflow=hidden;rotatable=0;points=[[0,0.5],[1,0.5]];portConstraint=eastwest;" parent="apWPaVwmRc4C89GI6ApP-11" vertex="1">
          <mxGeometry y="136" width="380" height="26" as="geometry" />
        </mxCell>
        <mxCell id="apWPaVwmRc4C89GI6ApP-20" value="+ GetFieldSize(): int" style="text;align=left;verticalAlign=top;spacingLeft=4;spacingRight=4;overflow=hidden;rotatable=0;points=[[0,0.5],[1,0.5]];portConstraint=eastwest;" parent="apWPaVwmRc4C89GI6ApP-11" vertex="1">
          <mxGeometry y="162" width="380" height="26" as="geometry" />
        </mxCell>
        <mxCell id="vCcfTCl87iZ95dj9NsQr-1" value="BattleshipGame" style="swimlane;fontStyle=0;align=center;verticalAlign=top;childLayout=stackLayout;horizontal=1;startSize=26;horizontalStack=0;resizeParent=1;resizeLast=0;collapsible=1;marginBottom=0;rounded=0;shadow=0;strokeWidth=1;" vertex="1" parent="1">
          <mxGeometry x="-30" y="1810" width="380" height="366" as="geometry">
            <mxRectangle x="340" y="380" width="170" height="26" as="alternateBounds" />
          </mxGeometry>
        </mxCell>
        <mxCell id="vCcfTCl87iZ95dj9NsQr-2" value="- gameObservers: List&lt;IGameView&gt;" style="text;align=left;verticalAlign=top;spacingLeft=4;spacingRight=4;overflow=hidden;rotatable=0;points=[[0,0.5],[1,0.5]];portConstraint=eastwest;" vertex="1" parent="vCcfTCl87iZ95dj9NsQr-1">
          <mxGeometry y="26" width="380" height="26" as="geometry" />
        </mxCell>
        <mxCell id="vCcfTCl87iZ95dj9NsQr-3" value="+ CurrentState: IBattleshipGameState" style="text;align=left;verticalAlign=top;spacingLeft=4;spacingRight=4;overflow=hidden;rotatable=0;points=[[0,0.5],[1,0.5]];portConstraint=eastwest;" vertex="1" parent="vCcfTCl87iZ95dj9NsQr-1">
          <mxGeometry y="52" width="380" height="26" as="geometry" />
        </mxCell>
        <mxCell id="vCcfTCl87iZ95dj9NsQr-4" value="+ Player1Board: GameBoard" style="text;align=left;verticalAlign=top;spacingLeft=4;spacingRight=4;overflow=hidden;rotatable=0;points=[[0,0.5],[1,0.5]];portConstraint=eastwest;" vertex="1" parent="vCcfTCl87iZ95dj9NsQr-1">
          <mxGeometry y="78" width="380" height="26" as="geometry" />
        </mxCell>
        <mxCell id="vCcfTCl87iZ95dj9NsQr-5" value="+ Player2Board: GameBoard" style="text;align=left;verticalAlign=top;spacingLeft=4;spacingRight=4;overflow=hidden;rotatable=0;points=[[0,0.5],[1,0.5]];portConstraint=eastwest;" vertex="1" parent="vCcfTCl87iZ95dj9NsQr-1">
          <mxGeometry y="104" width="380" height="24" as="geometry" />
        </mxCell>
        <mxCell id="vCcfTCl87iZ95dj9NsQr-6" value="+ ActualForm: Form" style="text;align=left;verticalAlign=top;spacingLeft=4;spacingRight=4;overflow=hidden;rotatable=0;points=[[0,0.5],[1,0.5]];portConstraint=eastwest;" vertex="1" parent="vCcfTCl87iZ95dj9NsQr-1">
          <mxGeometry y="128" width="380" height="24" as="geometry" />
        </mxCell>
        <mxCell id="vCcfTCl87iZ95dj9NsQr-7" value="" style="line;html=1;strokeWidth=1;align=left;verticalAlign=middle;spacingTop=-1;spacingLeft=3;spacingRight=3;rotatable=0;labelPosition=right;points=[];portConstraint=eastwest;" vertex="1" parent="vCcfTCl87iZ95dj9NsQr-1">
          <mxGeometry y="152" width="380" height="8" as="geometry" />
        </mxCell>
        <mxCell id="vCcfTCl87iZ95dj9NsQr-8" value="+ BattleshipGame()" style="text;align=left;verticalAlign=top;spacingLeft=4;spacingRight=4;overflow=hidden;rotatable=0;points=[[0,0.5],[1,0.5]];portConstraint=eastwest;" vertex="1" parent="vCcfTCl87iZ95dj9NsQr-1">
          <mxGeometry y="160" width="380" height="24" as="geometry" />
        </mxCell>
        <mxCell id="vCcfTCl87iZ95dj9NsQr-9" value="+ Initialize(): void" style="text;align=left;verticalAlign=top;spacingLeft=4;spacingRight=4;overflow=hidden;rotatable=0;points=[[0,0.5],[1,0.5]];portConstraint=eastwest;" vertex="1" parent="vCcfTCl87iZ95dj9NsQr-1">
          <mxGeometry y="184" width="380" height="26" as="geometry" />
        </mxCell>
        <mxCell id="vCcfTCl87iZ95dj9NsQr-10" value="+ TransitionToState(newState: IBattleshipGameState): void" style="text;align=left;verticalAlign=top;spacingLeft=4;spacingRight=4;overflow=hidden;rotatable=0;points=[[0,0.5],[1,0.5]];portConstraint=eastwest;" vertex="1" parent="vCcfTCl87iZ95dj9NsQr-1">
          <mxGeometry y="210" width="380" height="26" as="geometry" />
        </mxCell>
        <mxCell id="vCcfTCl87iZ95dj9NsQr-11" value="+ RegisterView(view: IGameView): void" style="text;align=left;verticalAlign=top;spacingLeft=4;spacingRight=4;overflow=hidden;rotatable=0;points=[[0,0.5],[1,0.5]];portConstraint=eastwest;" vertex="1" parent="vCcfTCl87iZ95dj9NsQr-1">
          <mxGeometry y="236" width="380" height="26" as="geometry" />
        </mxCell>
        <mxCell id="vCcfTCl87iZ95dj9NsQr-12" value="+ UnregisterView(view: IGameView): void" style="text;align=left;verticalAlign=top;spacingLeft=4;spacingRight=4;overflow=hidden;rotatable=0;points=[[0,0.5],[1,0.5]];portConstraint=eastwest;" vertex="1" parent="vCcfTCl87iZ95dj9NsQr-1">
          <mxGeometry y="262" width="380" height="26" as="geometry" />
        </mxCell>
        <mxCell id="vCcfTCl87iZ95dj9NsQr-13" value="+ NotifyObservers(): void" style="text;align=left;verticalAlign=top;spacingLeft=4;spacingRight=4;overflow=hidden;rotatable=0;points=[[0,0.5],[1,0.5]];portConstraint=eastwest;" vertex="1" parent="vCcfTCl87iZ95dj9NsQr-1">
          <mxGeometry y="288" width="380" height="26" as="geometry" />
        </mxCell>
        <mxCell id="vCcfTCl87iZ95dj9NsQr-14" value="+ HandlePlayerInput(coordinate: Coordinate): void" style="text;align=left;verticalAlign=top;spacingLeft=4;spacingRight=4;overflow=hidden;rotatable=0;points=[[0,0.5],[1,0.5]];portConstraint=eastwest;" vertex="1" parent="vCcfTCl87iZ95dj9NsQr-1">
          <mxGeometry y="314" width="380" height="26" as="geometry" />
        </mxCell>
        <mxCell id="vCcfTCl87iZ95dj9NsQr-15" value="IGameView" style="swimlane;fontStyle=0;align=center;verticalAlign=top;childLayout=stackLayout;horizontal=1;startSize=26;horizontalStack=0;resizeParent=1;resizeLast=0;collapsible=1;marginBottom=0;rounded=0;shadow=0;strokeWidth=1;" vertex="1" parent="1">
          <mxGeometry x="400" y="2030" width="380" height="60" as="geometry">
            <mxRectangle x="340" y="380" width="170" height="26" as="alternateBounds" />
          </mxGeometry>
        </mxCell>
        <mxCell id="vCcfTCl87iZ95dj9NsQr-20" value="+ Update(game: BattleshipGame): void" style="text;align=left;verticalAlign=top;spacingLeft=4;spacingRight=4;overflow=hidden;rotatable=0;points=[[0,0.5],[1,0.5]];portConstraint=eastwest;" vertex="1" parent="vCcfTCl87iZ95dj9NsQr-15">
          <mxGeometry y="26" width="380" height="24" as="geometry" />
        </mxCell>
        <mxCell id="vCcfTCl87iZ95dj9NsQr-23" value="ShipSquare" style="swimlane;fontStyle=0;align=center;verticalAlign=top;childLayout=stackLayout;horizontal=1;startSize=26;horizontalStack=0;resizeParent=1;resizeLast=0;collapsible=1;marginBottom=0;rounded=0;shadow=0;strokeWidth=1;" vertex="1" parent="1">
          <mxGeometry x="400" y="2110" width="380" height="190" as="geometry">
            <mxRectangle x="340" y="380" width="170" height="26" as="alternateBounds" />
          </mxGeometry>
        </mxCell>
        <mxCell id="vCcfTCl87iZ95dj9NsQr-24" value="+ ship: Ship" style="text;align=left;verticalAlign=top;spacingLeft=4;spacingRight=4;overflow=hidden;rotatable=0;points=[[0,0.5],[1,0.5]];portConstraint=eastwest;" vertex="1" parent="vCcfTCl87iZ95dj9NsQr-23">
          <mxGeometry y="26" width="380" height="26" as="geometry" />
        </mxCell>
        <mxCell id="vCcfTCl87iZ95dj9NsQr-25" value="+ PartNumber: int" style="text;align=left;verticalAlign=top;spacingLeft=4;spacingRight=4;overflow=hidden;rotatable=0;points=[[0,0.5],[1,0.5]];portConstraint=eastwest;" vertex="1" parent="vCcfTCl87iZ95dj9NsQr-23">
          <mxGeometry y="52" width="380" height="26" as="geometry" />
        </mxCell>
        <mxCell id="vCcfTCl87iZ95dj9NsQr-26" value="+ IsDamaged: bool" style="text;align=left;verticalAlign=top;spacingLeft=4;spacingRight=4;overflow=hidden;rotatable=0;points=[[0,0.5],[1,0.5]];portConstraint=eastwest;" vertex="1" parent="vCcfTCl87iZ95dj9NsQr-23">
          <mxGeometry y="78" width="380" height="26" as="geometry" />
        </mxCell>
        <mxCell id="vCcfTCl87iZ95dj9NsQr-27" value="" style="line;html=1;strokeWidth=1;align=left;verticalAlign=middle;spacingTop=-1;spacingLeft=3;spacingRight=3;rotatable=0;labelPosition=right;points=[];portConstraint=eastwest;" vertex="1" parent="vCcfTCl87iZ95dj9NsQr-23">
          <mxGeometry y="104" width="380" height="8" as="geometry" />
        </mxCell>
        <mxCell id="vCcfTCl87iZ95dj9NsQr-28" value="+ ShipSquare(partNumber: int, ship: Ship)" style="text;align=left;verticalAlign=top;spacingLeft=4;spacingRight=4;overflow=hidden;rotatable=0;points=[[0,0.5],[1,0.5]];portConstraint=eastwest;" vertex="1" parent="vCcfTCl87iZ95dj9NsQr-23">
          <mxGeometry y="112" width="380" height="24" as="geometry" />
        </mxCell>
        <mxCell id="vCcfTCl87iZ95dj9NsQr-29" value="+ drawYourSelf(square: SeaSquare): void" style="text;align=left;verticalAlign=top;spacingLeft=4;spacingRight=4;overflow=hidden;rotatable=0;points=[[0,0.5],[1,0.5]];portConstraint=eastwest;" vertex="1" parent="vCcfTCl87iZ95dj9NsQr-23">
          <mxGeometry y="136" width="380" height="26" as="geometry" />
        </mxCell>
        <mxCell id="vCcfTCl87iZ95dj9NsQr-30" value="+ drawYourSelf(square: SeaSquare): void" style="text;align=left;verticalAlign=top;spacingLeft=4;spacingRight=4;overflow=hidden;rotatable=0;points=[[0,0.5],[1,0.5]];portConstraint=eastwest;" vertex="1" parent="vCcfTCl87iZ95dj9NsQr-23">
          <mxGeometry y="162" width="380" height="26" as="geometry" />
        </mxCell>
      </root>
    </mxGraphModel>
  </diagram>
</mxfile>
